<svg width="34" height="42" viewBox="0 0 34 42" fill="none" xmlns="http://www.w3.org/2000/svg">
<path d="M0 38.0625C0 40.2363 1.6317 42 3.64286 42H30.3571C32.3683 42 34 40.2363 34 38.0625V15.75H0V38.0625ZM4.85714 22.3125C4.85714 21.5906 5.40357 21 6.07143 21H27.9286C28.5964 21 29.1429 21.5906 29.1429 22.3125V27.5625C29.1429 28.2844 28.5964 28.875 27.9286 28.875H6.07143C5.40357 28.875 4.85714 28.2844 4.85714 27.5625V22.3125ZM30.3571 5.25H26.7143V1.3125C26.7143 0.590625 26.1679 0 25.5 0H23.0714C22.4036 0 21.8571 0.590625 21.8571 1.3125V5.25H12.1429V1.3125C12.1429 0.590625 11.5964 0 10.9286 0H8.5C7.83214 0 7.28571 0.590625 7.28571 1.3125V5.25H3.64286C1.6317 5.25 0 7.01367 0 9.1875V13.125H34V9.1875C34 7.01367 32.3683 5.25 30.3571 5.25Z" fill="#FFBF5D"/>
</svg>
