<svg width="17" height="13" viewBox="0 0 17 13" fill="none" xmlns="http://www.w3.org/2000/svg">
<path d="M12.75 2.38418C11.6228 1.53731 10.094 1.06155 8.49997 1.06155C6.90592 1.06155 5.37715 1.53731 4.24998 2.38418C3.12281 3.23104 2.48957 4.37963 2.48957 5.57728C2.48957 6.77493 3.12281 7.92352 4.24998 8.77038L7.98289 11.5803C8.04874 11.6302 8.12708 11.6698 8.2134 11.6968C8.29972 11.7238 8.3923 11.7377 8.48581 11.7377C8.57932 11.7377 8.6719 11.7238 8.75822 11.6968C8.84453 11.6698 8.92287 11.6302 8.98872 11.5803L12.75 8.74377C13.8724 7.90043 14.503 6.75663 14.503 5.56397C14.503 4.37132 13.8724 3.22752 12.75 2.38418ZM11.7371 7.98275L8.49997 10.4255L5.26289 7.98275C4.62337 7.50182 4.18798 6.88924 4.01176 6.22244C3.83554 5.55564 3.9264 4.86455 4.27286 4.23654C4.61932 3.60853 5.20581 3.07178 5.95821 2.69416C6.71062 2.31654 7.59514 2.11499 8.49997 2.11499C9.40481 2.11499 10.2893 2.31654 11.0417 2.69416C11.7941 3.07178 12.3806 3.60853 12.7271 4.23654C13.0735 4.86455 13.1644 5.55564 12.9882 6.22244C12.812 6.88924 12.3766 7.50182 11.7371 7.98275ZM6.37498 3.94347C5.80315 4.37442 5.48205 4.95812 5.48205 5.56664C5.48205 6.17515 5.80315 6.75885 6.37498 7.1898C6.79981 7.50953 7.34085 7.72788 7.93023 7.81746C8.5196 7.90703 9.13107 7.86385 9.6879 7.69332C10.2447 7.5228 10.7221 7.23252 11.0602 6.85891C11.3983 6.4853 11.582 6.045 11.5883 5.59324C11.5915 5.2916 11.5142 4.99255 11.3609 4.71375C11.2076 4.43495 10.9814 4.18208 10.6958 3.97008C10.4151 3.75432 10.0803 3.58241 9.71081 3.46422C9.34131 3.34604 8.94434 3.28393 8.54276 3.28145C8.14118 3.27898 7.74291 3.3362 7.37087 3.44981C6.99884 3.56343 6.66038 3.7312 6.37498 3.94347ZM9.69706 6.4341C9.42863 6.63885 9.07387 6.76719 8.69344 6.79718C8.31301 6.82717 7.93052 6.75694 7.61138 6.5985C7.29223 6.44006 7.05625 6.20326 6.94377 5.92856C6.8313 5.65387 6.84931 5.35836 6.99474 5.09254C7.14016 4.82673 7.40397 4.60712 7.74106 4.47126C8.07814 4.3354 8.46757 4.29174 8.84276 4.34773C9.21796 4.40372 9.55561 4.55589 9.798 4.77822C10.0404 5.00055 10.1725 5.27924 10.1716 5.56664C10.1613 5.89514 9.97791 6.20713 9.66164 6.4341H9.69706Z" fill="#88889D"/>
</svg>
