<svg width="36" height="42" viewBox="0 0 36 42" fill="none" xmlns="http://www.w3.org/2000/svg">
<path d="M25.0473 30.7371L23.6813 32.1316C23.3036 32.5172 22.6929 32.5172 22.3152 32.1316L18 27.7184L13.6848 32.1234C13.3071 32.509 12.6964 32.509 12.3188 32.1234L10.9527 30.7289C10.575 30.3434 10.575 29.7199 10.9527 29.3344L15.2679 24.9293L10.9527 20.5242C10.575 20.1387 10.575 19.5152 10.9527 19.1297L12.3188 17.7352C12.6964 17.3496 13.3071 17.3496 13.6848 17.7352L18 22.1402L22.3152 17.7352C22.6929 17.3496 23.3036 17.3496 23.6813 17.7352L25.0473 19.1297C25.425 19.5152 25.425 20.1387 25.0473 20.5242L20.7241 24.9375L25.0393 29.3426C25.425 29.7281 25.425 30.3516 25.0473 30.7371ZM36 9.1875V38.0625C36 40.2363 34.2723 42 32.1429 42H3.85714C1.72768 42 0 40.2363 0 38.0625V9.1875C0 7.01367 1.72768 5.25 3.85714 5.25H7.71429V0.984375C7.71429 0.442969 8.14821 0 8.67857 0H11.8929C12.4232 0 12.8571 0.442969 12.8571 0.984375V5.25H23.1429V0.984375C23.1429 0.442969 23.5768 0 24.1071 0H27.3214C27.8518 0 28.2857 0.442969 28.2857 0.984375V5.25H32.1429C34.2723 5.25 36 7.01367 36 9.1875ZM32.1429 37.5703V13.125H3.85714V37.5703C3.85714 37.841 4.07411 38.0625 4.33929 38.0625H31.6607C31.9259 38.0625 32.1429 37.841 32.1429 37.5703Z" fill="#FF0000"/>
</svg>
