<svg width="38" height="46" viewBox="0 0 38 46" fill="none" xmlns="http://www.w3.org/2000/svg">
<path d="M36.9821 14.2898H1.01786C0.455746 14.2898 0 13.8099 0 13.218V10.0028C0 7.6352 1.82281 5.71591 4.07143 5.71591H8.14286V1.07173C8.14286 0.479868 8.5986 0 9.16071 0H12.5536C13.1157 0 13.5714 0.479868 13.5714 1.07173V5.71591H24.4286V1.07173C24.4286 0.479868 24.8843 0 25.4464 0H28.8393C29.4014 0 29.8571 0.479868 29.8571 1.07173V5.71591H33.9286C36.1772 5.71591 38 7.6352 38 10.0028V13.218C38 13.8099 37.5443 14.2898 36.9821 14.2898ZM1.01786 17.1477H36.9821C37.5443 17.1477 38 17.6276 38 18.2195V41.4403C38 43.808 36.1772 45.7273 33.9286 45.7273H4.07143C1.82281 45.7273 0 43.808 0 41.4403V18.2195C0 17.6276 0.455746 17.1477 1.01786 17.1477ZM29.2885 25.7168L26.8992 23.1806C26.5033 22.7604 25.8588 22.7576 25.4597 23.1745L16.4655 32.5686L12.5654 28.4289C12.1696 28.0087 11.525 28.0059 11.1259 28.4228L8.71727 30.9387C8.31818 31.3555 8.31555 32.0341 8.7115 32.4543L15.7178 39.8911C16.1137 40.3113 16.7582 40.3141 17.1573 39.8972L29.2827 27.2325C29.6818 26.8156 29.6844 26.1371 29.2885 25.7168Z" fill="#008000"/>
</svg>
