<svg width="180" height="158" viewBox="0 0 180 158" fill="none" xmlns="http://www.w3.org/2000/svg">
<path fill-rule="evenodd" clip-rule="evenodd" d="M151.873 145.177C148.198 146.24 144.298 146.24 140.623 145.177V131.644L146.248 126.019L151.873 131.644V145.177ZM171.858 37.3923L103.172 3.04618C99.0699 1.04184 94.5643 0 89.9985 0C85.4327 0 80.9271 1.04184 76.8247 3.04618L8.13344 37.3923C5.68862 38.6166 3.63287 40.4973 2.19638 42.8238C0.75989 45.1503 -0.000623396 47.8307 3.83414e-07 50.5649C0.000624163 53.2992 0.76236 55.9792 2.19991 58.3051C3.63746 60.6309 5.69407 62.5106 8.13945 63.7338L28.125 73.7296V106.816C28.125 125.738 55.3048 140.569 89.9995 140.569C100.032 140.622 110.024 139.282 119.688 136.587L116.56 125.776C107.914 128.181 98.9745 129.374 89.9995 129.319C60.1644 129.319 39.3747 117.456 39.3747 106.82V79.3534L76.8207 98.085C80.9119 100.128 85.4223 101.191 89.9952 101.19C94.5681 101.189 99.078 100.124 103.168 98.0789L126.259 86.5307L121.23 76.4679L98.1333 88.0161C95.5994 89.257 92.8154 89.9021 89.994 89.9021C87.1726 89.9021 84.3885 89.257 81.8546 88.0161L13.1794 53.674C12.6003 53.3873 12.1128 52.9447 11.7718 52.3959C11.4307 51.8472 11.2497 51.2141 11.2491 50.5679C11.2484 49.9218 11.4282 49.2884 11.7682 48.7389C12.1082 48.1895 12.5949 47.7459 13.1734 47.4582L81.8596 13.11C84.3935 11.8691 87.1776 11.224 89.999 11.224C92.8204 11.224 95.6044 11.8691 98.1383 13.11L166.819 47.4562C167.398 47.7428 167.885 48.1854 168.226 48.7342C168.567 49.283 168.748 49.9161 168.749 50.5622C168.749 51.2083 168.57 51.8418 168.23 52.3912C167.89 52.9406 167.403 53.3842 166.825 53.672L145.866 64.1555L91.8554 45.2557L88.1385 55.8774L140.621 74.2464V115.736L129.374 126.99V152.482L132.484 154.034C136.785 156.117 141.474 157.277 146.249 157.44C151.025 157.277 155.713 156.117 160.014 154.034L163.125 152.482V126.99L151.875 115.74V73.7286L171.866 63.7328C174.311 62.5085 176.367 60.6278 177.804 58.3014C179.24 55.9749 180.001 53.2944 180 50.5602C179.999 47.826 179.238 45.1459 177.8 42.8201C176.362 40.4942 174.306 38.6145 171.86 37.3913L171.858 37.3923Z" fill="#E6CF89"/>
</svg>
